<?xml version="1.0" encoding="UTF-8"?>
<!DOCTYPE svg PUBLIC "-//W3C//DTD SVG 1.1//EN" "http://www.w3.org/Graphics/SVG/1.1/DTD/svg11.dtd">
<!-- Creator: CorelDRAW 2026 -->
<svg xmlns="http://www.w3.org/2000/svg" xml:space="preserve" width="179.914mm" height="104.006mm" version="1.1" style="shape-rendering:geometricPrecision; text-rendering:geometricPrecision; image-rendering:optimizeQuality; fill-rule:evenodd; clip-rule:evenodd"
viewBox="0 0 17058.33 9861.19"
 xmlns:xlink="http://www.w3.org/1999/xlink"
 xmlns:xodm="http://www.corel.com/coreldraw/odm/2003">
 <defs>
  <style type="text/css">
   <![CDATA[
    .fil5 {fill:url(#id0)}
    .fil1 {fill:url(#id1)}
    .fil6 {fill:url(#id2)}
    .fil0 {fill:url(#id3)}
    .fil3 {fill:url(#id4)}
    .fil2 {fill:url(#id5)}
    .fil4 {fill:url(#id6)}
   ]]>
  </style>
  <linearGradient id="id0" gradientUnits="userSpaceOnUse" x1="-3195.81" y1="-1474.77" x2="16998.02" y2="15750.17">
   <stop offset="0" style="stop-opacity:1; stop-color:#373535"/>
   <stop offset="0.360784" style="stop-opacity:1; stop-color:#DA3363"/>
   <stop offset="0.631373" style="stop-opacity:1; stop-color:#F1623B"/>
   <stop offset="0.678431" style="stop-opacity:1; stop-color:#F1623B"/>
   <stop offset="1" style="stop-opacity:1; stop-color:#FEBF38"/>
  </linearGradient>
  <linearGradient id="id1" gradientUnits="userSpaceOnUse" xlink:href="#id0" x1="-3360.42" y1="-4988.61" x2="20930.9" y2="15926.44">
  </linearGradient>
  <linearGradient id="id2" gradientUnits="userSpaceOnUse" xlink:href="#id0" x1="-4096.94" y1="-8739.97" x2="20450.92" y2="12420.87">
  </linearGradient>
  <linearGradient id="id3" gradientUnits="userSpaceOnUse" xlink:href="#id0" x1="-2707.98" y1="-6861.54" x2="22223.18" y2="14522.18">
  </linearGradient>
  <linearGradient id="id4" gradientUnits="userSpaceOnUse" xlink:href="#id0" x1="-4120.8" y1="-1794.34" x2="18798.42" y2="17968.37">
  </linearGradient>
  <linearGradient id="id5" gradientUnits="userSpaceOnUse" xlink:href="#id0" x1="-4355.71" y1="883.35" x2="15159.71" y2="17672.18">
  </linearGradient>
  <linearGradient id="id6" gradientUnits="userSpaceOnUse" xlink:href="#id0" x1="-9849.29" y1="-11390.66" x2="21194.67" y2="15377.71">
  </linearGradient>
 </defs>
 <g id="Camada_x0020_1">
  <metadata id="CorelCorpID_0Corel-Layer"/>
  <g id="_105553218180928">
   <path class="fil0" d="M9477.09 3475.64c-153.25,91.14 -306.47,182.35 -459.77,273.39 -81.53,48.42 -163.39,96.29 -244.79,144.93 -35.82,21.41 -69.56,46.59 -106.42,65.84 -179.78,93.83 -358.38,86.87 -534.06,-11.46 -119.73,-67.03 -212.02,-163.69 -289.94,-275.1 -2.46,-3.51 -3.57,-7.96 -6.64,-15.07 91.9,-55.72 183.25,-111.08 274.33,-166.31 -436.77,-623.63 -872.5,-1245.75 -1308.46,-1868.23 5.51,-6.6 8.5,-11.41 12.6,-14.93 79.62,-68.51 158.88,-137.44 239.25,-205.05 49.4,-41.55 102.77,-77.62 162.35,-103.4 113.51,-49.1 214.14,-28.5 292.44,66.96 54.32,66.23 102.1,137.89 151.56,207.99 53.39,75.67 105.23,152.43 157.92,228.6 103.44,149.56 206.96,299.06 310.51,448.54 69.47,100.28 139.11,200.43 208.59,300.69 82.35,118.83 164.54,237.76 246.97,356.53 7.6,10.96 16.41,21.09 26.63,34.1 6.7,-5.26 12.86,-9.5 18.33,-14.49 23.34,-21.32 44.4,-45.92 70.2,-63.62 38.54,-26.45 37.58,-57.06 27.4,-98.23 -99.83,-403.35 -197.73,-807.17 -296.01,-1210.9 -58.23,-239.16 -116.31,-478.35 -174.19,-717.58 -24.97,-103.19 -32.47,-207.36 -15.41,-312.67 26.22,-161.73 106.8,-290.63 236.1,-389.88 79.94,-61.36 169.83,-102.41 266.68,-128.85 10.63,-2.91 21.55,-4.78 33.73,-7.43 3.54,13.13 6.77,23.74 9.25,34.53 149.56,649.15 299.01,1298.35 448.57,1947.51 27.88,121.04 56.34,241.94 84.06,363.01 6.81,29.7 12.19,59.73 17.46,89.74 15.28,87.13 -14.07,157.94 -80.8,213.87 -45.01,37.73 -91.35,73.86 -136.86,111 -169.8,138.53 -339.52,277.16 -509.18,415.86 -8.36,6.85 -15.92,14.67 -20.39,26.76 30.26,-17.8 60.7,-35.26 90.73,-53.41 150.71,-91.14 301.28,-182.51 451.95,-273.68 79.21,-47.92 158.08,-96.44 237.97,-143.18 74.25,-43.42 153.82,-49.88 235.57,-25.78 42.7,12.59 74.15,38.71 96.32,79.39 72.96,133.78 149.33,265.7 222.61,399.33 128.07,233.57 254.39,468.13 382.32,701.78 60.2,109.94 121.35,219.25 167.41,336.2 76.62,194.52 121,395.01 110.68,605.2 -13.6,276.65 -115.87,515.17 -311.14,712.66 -130.77,132.27 -282.2,233.03 -460.37,288.68 -282.96,88.38 -546.02,40.04 -784.65,-131.45 -223.71,-160.77 -379.29,-371.87 -445.46,-643.09 -47.33,-193.93 -42.36,-387.57 7.62,-580.21 50.59,-194.99 142.55,-368.07 281.91,-514.12 40.35,-42.3 85.43,-80.72 131.64,-116.67 143.56,-111.65 288.72,-221.26 433.21,-331.7 14.35,-10.97 28.43,-22.28 42.65,-33.43 -1.01,-1.05 -2,-2.11 -3,-3.17z"/>
   <path class="fil1" d="M8350.73 4914.02c-6.43,15.01 -11.05,27.63 -17.07,39.55 -71.05,140.71 -170.41,255.24 -312.31,327.75 -133.46,68.2 -267.67,71.06 -402.54,-0.24 -177.65,-93.92 -356.63,-185.38 -534.73,-278.47 -20.87,-10.9 -41.27,-23.68 -59.41,-38.6 -50.22,-41.31 -62.16,-93.67 -33.25,-151.39 51.06,-101.95 102.45,-203.78 156.83,-303.98 14.47,-26.67 40.31,-47.19 62.37,-72.14 -4.61,-2.89 -11.52,-8.01 -19.09,-11.83 -59.46,-30.01 -119.31,-59.26 -178.46,-89.9 -20.92,-10.83 -41.65,-23.02 -59.96,-37.73 -60.24,-48.42 -71.7,-102.19 -37.81,-170.98 40.41,-82.03 81.34,-163.81 121.97,-245.75 19.55,-39.44 37.85,-79.56 58.6,-118.37 39.65,-74.14 105.28,-105.12 186.55,-107.54 26.95,-0.81 50.04,11.89 73.12,24.18 272.02,144.92 544.11,289.7 816.18,434.53 56.8,30.24 113.62,60.48 170.35,90.84 9.75,5.21 19.14,11.06 31.07,17.99 -43.37,112.01 -109.43,206.49 -194.42,287.4 -85.53,81.45 -184.28,140.74 -303.74,169.73 79.23,39.11 158.44,78.21 237.66,117.33 78.78,38.91 157.55,77.83 238.08,117.62z"/>
   <path class="fil2" d="M4010.03 7112.92l0 2338.44c0,215.13 174.4,389.53 389.52,389.53 215.13,0 389.52,-174.4 389.52,-389.53l0 -2462.1c-2.17,-0.88 -160.8,-12.63 -310.54,-0.69 -164.97,13.15 -304.61,59.99 -468.5,124.36z"/>
   <path class="fil3" d="M4833.2 5854.79c35.97,-71.74 55.89,-150.3 55.89,-234.04 0,-143.47 -54.36,-272.89 -157.27,-374.38 -103.74,-102.15 -229.63,-153.95 -374.25,-153.95 -143.08,0 -272.25,53.54 -373.53,154.81 -101.27,101.29 -154.81,230.45 -154.81,373.52 0,121.53 37.39,229.47 109.72,322.41 279.29,-113.88 595.69,-136.69 894.25,-88.37z"/>
   <path class="fil4" d="M13325.89 8860.37c48.28,-91.01 91.21,-184.53 126.84,-281.05 24.17,-83.52 43.55,-167.18 58.25,-248.35l-363.56 198.04 70.78 139.84c34.07,67.29 70.26,130.62 107.69,191.51z"/>
   <path class="fil5" d="M13087.49 7658.21l-19.33 152.2c-31.92,251.52 -78.55,443.31 -138.57,570.07 -59.14,124.95 -147.81,245.52 -263.52,358.38 -115.66,112.83 -248.93,202.98 -396.13,267.94 -302.17,133.37 -594.73,138.54 -894.44,15.83 -257.36,-105.33 -458.02,-283.85 -609.83,-543.46l2154.98 -951.06c-4.74,-20.19 -5.94,-42.52 -1.74,-67.34 59.19,-349.17 148.8,-666.56 360.98,-948.6 -167.2,-206.74 -364.68,-370.79 -591.13,-489.99 -560.13,-296.72 -1145.91,-314.01 -1741.02,-51.37 -583.85,257.68 -956.22,692.27 -1106.67,1291.13 -61.83,242.09 -80.72,482.85 -57.62,720.53 -141.22,8.1 -283.84,-2.95 -425.7,-27.28 2.3,-41.47 3.86,-83.24 3.86,-125.58 0,-560.72 -194.97,-1044.76 -579.5,-1438.7 -385.67,-394.93 -856.49,-595.19 -1399.42,-595.19 -305.72,0 -591.7,63.68 -849.99,189.27 -144.56,70.32 -282.07,161.55 -411.32,272.71l0 -1354.66c0,-214.23 -173.66,-387.9 -387.89,-387.9 -214.23,0 -387.91,173.67 -387.91,387.9l0 1219.29c-129.73,-34.25 -261.82,-61.3 -396.9,-78.53 -644.72,-82.23 -1269.89,94.89 -1784.68,488.13 -483.93,369.66 -815.8,879.98 -1099.62,1410.39 -1.19,-3.81 -65.54,124.24 -65.54,124.24 -29.72,57.2 -59.16,114.48 -88.09,171.78 -12.48,24.71 -20.56,50.47 -25.24,76.67l-7.26 15.92 -1036.03 -2252.71c-28.43,-61.81 -90.23,-101.42 -158.26,-101.42l-603.05 0c-58.93,0 -98.02,61.05 -73.39,114.57l1668.92 3625.3c36.66,79.63 116.32,130.65 203.98,130.65 87.85,0 167.64,-51.23 204.19,-131.12l616.17 -1346.46c-0.12,0.03 -0.25,0.05 -0.37,0.07 298.14,-572.87 673.74,-1165.8 1276.74,-1442.1 443.98,-203.42 920.14,-157.4 1368.45,-7.27l0 1116.12 1.22 19.89c41.42,333.64 166.25,675.87 371.03,1017.18l7.83 13.06 10.14 11.36c228.02,255.65 482.33,446.07 755.82,565.93 272.65,119.51 568.09,180.12 878.14,180.12 546.83,0 1020.7,-198.94 1408.47,-591.31 166.22,-168.25 297,-352.65 392.42,-551.93 272.66,44.98 548.35,55.48 826.17,19.46 211.27,427.98 548.19,754.38 1002.73,970.95 492.84,234.89 1032.34,226.18 1603.48,-25.88 255.62,-112.81 471.83,-255.52 642.55,-424.12 171.23,-168.99 308.16,-367.64 406.98,-590.44 98.7,-222.54 155.42,-485.16 168.6,-780.57l6.98 -156.58 -740.64 -55.49zm-5131.8 1259.37c-188.42,110.73 -398.6,166.89 -624.73,166.89 -350.54,0 -638.67,-119.62 -880.88,-365.71 -242.93,-246.77 -361.03,-547.14 -361.03,-918.25 0,-175.72 29.62,-340.2 87.82,-491.22 687.81,388.47 1433.22,880.51 2212.68,1175.29 -110.35,182.44 -255.87,328.32 -433.86,433.01zm433.97 -1280.88c-583.57,-250.61 -1119.83,-571.21 -1666.08,-892.02 -15.3,-8.98 -30.71,-17.85 -46.06,-26.79 9.29,-5.52 18.16,-11.35 27.68,-16.71 198.69,-111.75 411.39,-168.43 632.24,-168.43 215.67,0 421.7,56.26 612.38,167.24 190.28,110.76 344.25,269.8 457.6,472.74 96.98,173.6 152.9,355.44 167.62,541.72 -63,-25.67 -124.91,-51.79 -185.37,-77.76zm2266.03 -384.15c122.43,-271.04 319.27,-463.39 601.72,-588.06 170.56,-75.26 351.86,-111.48 538.84,-107.68 185.66,3.88 351.9,43.42 494.08,117.52 96.84,50.48 193.41,125.45 288.52,223.79l-2009.17 886.71c-7.6,-208.47 21.2,-386.97 86.02,-532.29z"/>
   <path class="fil6" d="M15858.41 7255.72l-1904.5 15.97c46.22,-128.77 103.39,-236.83 170.89,-322.67 99.1,-126.04 234.35,-230.46 401.97,-310.37 168.85,-80.4 349,-121.98 535.42,-123.55 301.17,-2.52 554.47,87.48 773.82,274.46l698.99 0c121.79,0 193.62,-138.49 121.81,-236.84 -18.64,-25.52 -37.94,-50.79 -57.89,-75.77 -383.5,-483.94 -901.71,-726.85 -1539.86,-721.5 -650.47,5.45 -1177.27,262.22 -1565.73,763.09 -275.41,353.24 -414.04,794.85 -412.03,1312.59l0.64 162.27 3175.06 -26.63c-31.56,299.07 -141.01,544.35 -332.25,746.23 -222.68,235.14 -491.47,350.78 -821.74,353.56 -160.89,1.35 -319.46,-26 -471.29,-81.25 -151.9,-55.27 -282.32,-128.67 -387.62,-218.22 -74.1,-62.99 -228.26,-225.73 -315.22,-349.61 -17.66,151.45 -167.25,561.95 -345.81,777.43 0.05,0.28 97.5,101.5 97.54,101.78 185.52,169.38 397.48,298.97 629.62,384.97 224.97,83.42 480.75,124.55 760.15,122.21 624.27,-5.23 1119.56,-219.26 1472.13,-636.11 346.53,-409.63 520.04,-877.95 515.73,-1391.91 -1.51,-180.28 -23.87,-353.85 -66.66,-520.14l-1133.17 0z"/>
  </g>
 </g>
</svg>
