<svg xmlns="http://www.w3.org/2000/svg" viewBox="5287 -470 6813 6813">
  <defs>
    <linearGradient id="vibes" gradientUnits="userSpaceOnUse" x1="5287" y1="-470" x2="12100" y2="6343">
      <stop offset="0" stop-color="#DA3363"/>
      <stop offset="0.65" stop-color="#F1623B"/>
      <stop offset="1" stop-color="#FEBF38"/>
    </linearGradient>
  </defs>
  <path fill="url(#vibes)" d="M9477.09 3475.64c-153.25,91.14 -306.47,182.35 -459.77,273.39 -81.53,48.42 -163.39,96.29 -244.79,144.93 -35.82,21.41 -69.56,46.59 -106.42,65.84 -179.78,93.83 -358.38,86.87 -534.06,-11.46 -119.73,-67.03 -212.02,-163.69 -289.94,-275.1 -2.46,-3.51 -3.57,-7.96 -6.64,-15.07 91.9,-55.72 183.25,-111.08 274.33,-166.31 -436.77,-623.63 -872.5,-1245.75 -1308.46,-1868.23 5.51,-6.6 8.5,-11.41 12.6,-14.93 79.62,-68.51 158.88,-137.44 239.25,-205.05 49.4,-41.55 102.77,-77.62 162.35,-103.4 113.51,-49.1 214.14,-28.5 292.44,66.96 54.32,66.23 102.1,137.89 151.56,207.99 53.39,75.67 105.23,152.43 157.92,228.6 103.44,149.56 206.96,299.06 310.51,448.54 69.47,100.28 139.11,200.43 208.59,300.69 82.35,118.83 164.54,237.76 246.97,356.53 7.6,10.96 16.41,21.09 26.63,34.1 6.7,-5.26 12.86,-9.5 18.33,-14.49 23.34,-21.32 44.4,-45.92 70.2,-63.62 38.54,-26.45 37.58,-57.06 27.4,-98.23 -99.83,-403.35 -197.73,-807.17 -296.01,-1210.9 -58.23,-239.16 -116.31,-478.35 -174.19,-717.58 -24.97,-103.19 -32.47,-207.36 -15.41,-312.67 26.22,-161.73 106.8,-290.63 236.1,-389.88 79.94,-61.36 169.83,-102.41 266.68,-128.85 10.63,-2.91 21.55,-4.78 33.73,-7.43 3.54,13.13 6.77,23.74 9.25,34.53 149.56,649.15 299.01,1298.35 448.57,1947.51 27.88,121.04 56.34,241.94 84.06,363.01 6.81,29.7 12.19,59.73 17.46,89.74 15.28,87.13 -14.07,157.94 -80.8,213.87 -45.01,37.73 -91.35,73.86 -136.86,111 -169.8,138.53 -339.52,277.16 -509.18,415.86 -8.36,6.85 -15.92,14.67 -20.39,26.76 30.26,-17.8 60.7,-35.26 90.73,-53.41 150.71,-91.14 301.28,-182.51 451.95,-273.68 79.21,-47.92 158.08,-96.44 237.97,-143.18 74.25,-43.42 153.82,-49.88 235.57,-25.78 42.7,12.59 74.15,38.71 96.32,79.39 72.96,133.78 149.33,265.7 222.61,399.33 128.07,233.57 254.39,468.13 382.32,701.78 60.2,109.94 121.35,219.25 167.41,336.2 76.62,194.52 121,395.01 110.68,605.2 -13.6,276.65 -115.87,515.17 -311.14,712.66 -130.77,132.27 -282.2,233.03 -460.37,288.68 -282.96,88.38 -546.02,40.04 -784.65,-131.45 -223.71,-160.77 -379.29,-371.87 -445.46,-643.09 -47.33,-193.93 -42.36,-387.57 7.62,-580.21 50.59,-194.99 142.55,-368.07 281.91,-514.12 40.35,-42.3 85.43,-80.72 131.64,-116.67 143.56,-111.65 288.72,-221.26 433.21,-331.7 14.35,-10.97 28.43,-22.28 42.65,-33.43 -1.01,-1.05 -2,-2.11 -3,-3.17z"/>
  <path fill="url(#vibes)" d="M8350.73 4914.02c-6.43,15.01 -11.05,27.63 -17.07,39.55 -71.05,140.71 -170.41,255.24 -312.31,327.75 -133.46,68.2 -267.67,71.06 -402.54,-0.24 -177.65,-93.92 -356.63,-185.38 -534.73,-278.47 -20.87,-10.9 -41.27,-23.68 -59.41,-38.6 -50.22,-41.31 -62.16,-93.67 -33.25,-151.39 51.06,-101.95 102.45,-203.78 156.83,-303.98 14.47,-26.67 40.31,-47.19 62.37,-72.14 -4.61,-2.89 -11.52,-8.01 -19.09,-11.83 -59.46,-30.01 -119.31,-59.26 -178.46,-89.9 -20.92,-10.83 -41.65,-23.02 -59.96,-37.73 -60.24,-48.42 -71.7,-102.19 -37.81,-170.98 40.41,-82.03 81.34,-163.81 121.97,-245.75 19.55,-39.44 37.85,-79.56 58.6,-118.37 39.65,-74.14 105.28,-105.12 186.55,-107.54 26.95,-0.81 50.04,11.89 73.12,24.18 272.02,144.92 544.11,289.7 816.18,434.53 56.8,30.24 113.62,60.48 170.35,90.84 9.75,5.21 19.14,11.06 31.07,17.99 -43.37,112.01 -109.43,206.49 -194.42,287.4 -85.53,81.45 -184.28,140.74 -303.74,169.73 79.23,39.11 158.44,78.21 237.66,117.33 78.78,38.91 157.55,77.83 238.08,117.62z"/>
</svg>
